<svg width="25" height="25" viewBox="0 0 25 25" fill="none" xmlns="http://www.w3.org/2000/svg">
<path d="M12.5 2.08334C6.75623 2.08334 2.08331 6.75625 2.08331 12.5C2.08331 18.2438 6.75623 22.9167 12.5 22.9167C18.2437 22.9167 22.9166 18.2438 22.9166 12.5C22.9166 6.75625 18.2437 2.08334 12.5 2.08334ZM12.5 20.8333C7.90519 20.8333 4.16665 17.0948 4.16665 12.5C4.16665 7.90521 7.90519 4.16667 12.5 4.16667C17.0948 4.16667 20.8333 7.90521 20.8333 12.5C20.8333 17.0948 17.0948 20.8333 12.5 20.8333Z" fill="black"/>
<path d="M13.5416 7.29166H11.4583V12.9312L14.8885 16.3615L16.3614 14.8885L13.5416 12.0687V7.29166Z" fill="black"/>
</svg>
