<svg width="19" height="21" viewBox="0 0 19 21" fill="none" xmlns="http://www.w3.org/2000/svg">
<path d="M8.25311 1.04948C8.60479 0.76141 9.04538 0.604 9.49998 0.604C9.95459 0.604 10.3952 0.76141 10.7469 1.04948L17.6088 6.64427C17.8423 6.8357 18.0303 7.07665 18.1592 7.34968C18.2881 7.62271 18.3547 7.92099 18.3541 8.22292V18.3714C18.3541 19.4896 17.4625 20.3958 16.362 20.3958H13.7057C12.6052 20.3958 11.7135 19.4896 11.7135 18.3714V13.4948C11.7135 13.1224 11.4167 12.8203 11.0495 12.8203H7.9505C7.58384 12.8203 7.28644 13.1224 7.28644 13.4948V18.3719C7.28644 19.4901 6.39477 20.3964 5.29425 20.3964H2.638C1.538 20.3958 0.645817 19.4896 0.645817 18.3714V8.22292C0.645252 7.92099 0.711831 7.62271 0.840735 7.34968C0.969638 7.07665 1.15764 6.8357 1.39113 6.64427L8.25311 1.04948Z" fill="black"/>
</svg>
