<svg width="20" height="20" viewBox="0 0 20 20" fill="none" xmlns="http://www.w3.org/2000/svg">
<path d="M1.875 0C0.8375 0 0 0.8375 0 1.8725V18.0988C0 19.1338 0.83875 19.9712 1.875 19.9712H3.125C4.15875 19.9712 4.99875 19.1338 4.99875 18.0988V1.8725C4.99875 0.8375 4.15875 0 3.12375 0H1.87375H1.875ZM8.1225 0C7.0875 0 6.2475 0.8375 6.2475 1.8725V18.0988C6.2475 19.1338 7.0875 19.9712 8.1225 19.9712H9.3725C10.4075 19.9712 11.2462 19.1338 11.2462 18.0988V1.8725C11.2462 0.83875 10.4075 0 9.37125 0H8.12125H8.1225ZM17.1475 5.19625C17.0904 4.9488 16.9836 4.71554 16.8336 4.5106C16.6837 4.30566 16.4936 4.13333 16.275 4.00405C16.0565 3.87477 15.8139 3.79124 15.562 3.75853C15.3102 3.72582 15.0544 3.7446 14.81 3.81375L13.8787 4.07625C13.4238 4.20488 13.0343 4.50085 12.7886 4.90475C12.5428 5.30865 12.4589 5.79057 12.5538 6.25375L15.0575 18.5025C15.1086 18.7508 15.2096 18.9861 15.3543 19.1942C15.4989 19.4024 15.6843 19.579 15.8992 19.7135C16.114 19.848 16.3539 19.9375 16.6044 19.9766C16.8548 20.0158 17.1106 20.0037 17.3563 19.9412L18.5875 19.6287C19.575 19.3787 20.18 18.3863 19.9525 17.395L17.1475 5.195V5.19625Z" fill="black"/>
</svg>
