<svg width="25" height="25" viewBox="0 0 25 25" fill="none" xmlns="http://www.w3.org/2000/svg">
<path d="M17.7084 8.33333V7.29167C17.7084 4.41979 15.3719 2.08333 12.5 2.08333C9.62815 2.08333 7.29169 4.41979 7.29169 7.29167V10.4167H6.25002C5.10106 10.4167 4.16669 11.351 4.16669 12.5V20.8333C4.16669 21.9823 5.10106 22.9167 6.25002 22.9167H18.75C19.899 22.9167 20.8334 21.9823 20.8334 20.8333V12.5C20.8334 11.351 19.899 10.4167 18.75 10.4167H9.37502V7.29167C9.37502 5.56875 10.7771 4.16667 12.5 4.16667C14.2229 4.16667 15.625 5.56875 15.625 7.29167V8.33333H17.7084Z" fill="white"/>
</svg>
