<svg width="25" height="25" viewBox="0 0 25 25" fill="none" xmlns="http://www.w3.org/2000/svg">
<path d="M17.7083 18.75C17.1354 18.75 16.6667 18.2813 16.6667 17.7084V7.2917C16.6667 6.71878 17.1354 6.25003 17.7083 6.25003C18.2813 6.25003 18.75 6.71878 18.75 7.2917V17.7084C18.75 18.2813 18.2813 18.75 17.7083 18.75ZM13.8958 11.6459L7.88542 7.40628C7.19792 6.9167 6.23958 7.4167 6.23958 8.26045V16.7396C6.23958 17.5834 7.1875 18.0729 7.88542 17.5938L13.8958 13.3542C14.0334 13.2582 14.1457 13.1304 14.2232 12.9817C14.3008 12.833 14.3413 12.6678 14.3413 12.5C14.3413 12.3323 14.3008 12.1671 14.2232 12.0184C14.1457 11.8696 14.0334 11.7419 13.8958 11.6459Z" fill="black"/>
</svg>
