<svg width="25" height="25" viewBox="0 0 25 25" fill="none" xmlns="http://www.w3.org/2000/svg">
<path d="M9.375 4.6875H7.8125C7.3981 4.6875 7.00067 4.85212 6.70765 5.14515C6.41462 5.43817 6.25 5.8356 6.25 6.25V18.75C6.25 19.1644 6.41462 19.5618 6.70765 19.8549C7.00067 20.1479 7.3981 20.3125 7.8125 20.3125H9.375C9.7894 20.3125 10.1868 20.1479 10.4799 19.8549C10.7729 19.5618 10.9375 19.1644 10.9375 18.75V6.25C10.9375 5.8356 10.7729 5.43817 10.4799 5.14515C10.1868 4.85212 9.7894 4.6875 9.375 4.6875V4.6875ZM17.1875 4.6875H15.625C15.2106 4.6875 14.8132 4.85212 14.5201 5.14515C14.2271 5.43817 14.0625 5.8356 14.0625 6.25V18.75C14.0625 19.1644 14.2271 19.5618 14.5201 19.8549C14.8132 20.1479 15.2106 20.3125 15.625 20.3125H17.1875C17.6019 20.3125 17.9993 20.1479 18.2924 19.8549C18.5854 19.5618 18.75 19.1644 18.75 18.75V6.25C18.75 5.8356 18.5854 5.43817 18.2924 5.14515C17.9993 4.85212 17.6019 4.6875 17.1875 4.6875V4.6875Z" fill="black"/>
</svg>
