<svg width="25" height="25" viewBox="0 0 25 25" fill="none" xmlns="http://www.w3.org/2000/svg">
<path d="M7.29167 6.25C7.86458 6.25 8.33333 6.71875 8.33333 7.29167V17.7083C8.33333 18.2812 7.86458 18.75 7.29167 18.75C6.71875 18.75 6.25 18.2812 6.25 17.7083V7.29167C6.25 6.71875 6.71875 6.25 7.29167 6.25ZM11.1042 13.3542L17.1146 17.5937C17.8021 18.0833 18.7604 17.5833 18.7604 16.7396V8.26042C18.7604 7.41667 17.8125 6.92708 17.1146 7.40625L11.1042 11.6458C10.9666 11.7418 10.8543 11.8696 10.7768 12.0183C10.6992 12.167 10.6587 12.3323 10.6587 12.5C10.6587 12.6677 10.6992 12.833 10.7768 12.9817C10.8543 13.1304 10.9666 13.2582 11.1042 13.3542Z" fill="black"/>
</svg>
