<svg width="21" height="21" viewBox="0 0 21 21" fill="none" xmlns="http://www.w3.org/2000/svg">
<path d="M18.8333 0.0833321H6.33331C5.18748 0.0833321 4.24998 1.02083 4.24998 2.16667V14.6667C4.24998 15.8125 5.18748 16.75 6.33331 16.75H18.8333C19.9791 16.75 20.9166 15.8125 20.9166 14.6667V2.16667C20.9166 1.02083 19.9791 0.0833321 18.8333 0.0833321ZM16.75 5.29167H13.625V11.0208C13.625 11.7115 13.3506 12.3739 12.8622 12.8623C12.3739 13.3506 11.7115 13.625 11.0208 13.625C10.3301 13.625 9.66776 13.3506 9.17939 12.8623C8.69101 12.3739 8.41665 11.7115 8.41665 11.0208C8.41665 10.3302 8.69101 9.66778 9.17939 9.17941C9.66776 8.69103 10.3301 8.41667 11.0208 8.41667C11.6146 8.41667 12.1458 8.61458 12.5833 8.94792V3.20833H16.75V5.29167ZM2.16665 4.25H0.083313V18.8333C0.083313 19.9792 1.02081 20.9167 2.16665 20.9167H16.75V18.8333H2.16665V4.25Z" fill="black"/>
</svg>
