<svg width="25" height="25" viewBox="0 0 25 25" fill="none" xmlns="http://www.w3.org/2000/svg">
<path d="M12.8906 20.3218C12.6408 20.3216 12.3976 20.2413 12.1968 20.0928L12.1646 20.0679L7.69873 16.4058H4.29688C3.98607 16.4058 3.688 16.2823 3.46823 16.0625C3.24846 15.8428 3.125 15.5447 3.125 15.2339V9.76562C3.125 9.45482 3.24846 9.15675 3.46823 8.93698C3.688 8.71721 3.98607 8.59375 4.29688 8.59375H7.69775L12.1636 4.93164L12.1958 4.90673C12.3704 4.77819 12.5772 4.70059 12.7933 4.68258C13.0093 4.66457 13.2262 4.70685 13.4196 4.80472C13.6131 4.90259 13.7756 5.05221 13.8891 5.23694C14.0026 5.42167 14.0626 5.63426 14.0625 5.85107V19.1489C14.0625 19.4597 13.939 19.7578 13.7193 19.9776C13.4995 20.1973 13.2014 20.3208 12.8906 20.3208V20.3218ZM17.1875 16.4062C17.0543 16.4062 16.9232 16.372 16.8069 16.307C16.6906 16.2421 16.5928 16.1484 16.5229 16.035C16.453 15.9215 16.4132 15.7921 16.4074 15.659C16.4016 15.5259 16.43 15.3935 16.4897 15.2744C16.9531 14.3516 17.188 13.4189 17.188 12.5C17.188 11.5547 16.9604 10.6484 16.4922 9.72998C16.4025 9.54594 16.3886 9.33404 16.4535 9.13987C16.5185 8.9457 16.657 8.78478 16.8394 8.69173C17.0218 8.59869 17.2334 8.58095 17.4287 8.64235C17.624 8.70374 17.7874 8.83936 17.8838 9.02002C18.4668 10.1641 18.75 11.3022 18.75 12.5C18.75 13.6636 18.457 14.833 17.8857 15.9756C17.8207 16.105 17.721 16.2139 17.5977 16.2899C17.4744 16.366 17.3324 16.4063 17.1875 16.4062Z" fill="black"/>
<path d="M19.5312 18.75C19.394 18.7501 19.2592 18.7141 19.1404 18.6456C19.0215 18.5771 18.9228 18.4784 18.8542 18.3597C18.7855 18.2409 18.7494 18.1061 18.7493 17.9689C18.7493 17.8317 18.7854 17.6969 18.854 17.5781C19.7754 15.9692 20.3125 14.6216 20.3125 12.5C20.3125 10.3457 19.7783 9.00781 18.856 7.42432C18.7608 7.24577 18.7385 7.03725 18.794 6.84266C18.8494 6.64806 18.9782 6.48257 19.1532 6.38102C19.3282 6.27947 19.5358 6.24978 19.7323 6.2982C19.9287 6.34662 20.0988 6.46938 20.2065 6.64063C21.2363 8.40625 21.875 10.0039 21.875 12.5C21.875 14.959 21.2373 16.5645 20.209 18.3594C20.1403 18.4783 20.0415 18.577 19.9225 18.6456C19.8035 18.7142 19.6686 18.7502 19.5312 18.75Z" fill="black"/>
</svg>
