<svg width="25" height="25" viewBox="0 0 25 25" fill="none" xmlns="http://www.w3.org/2000/svg">
<path d="M14.4531 20.3218C14.2033 20.3216 13.9601 20.2413 13.7593 20.0928L13.7271 20.0679L9.26123 16.4058H5.85938C5.54857 16.4058 5.2505 16.2823 5.03073 16.0625C4.81096 15.8428 4.6875 15.5447 4.6875 15.2339V9.76562C4.6875 9.45482 4.81096 9.15675 5.03073 8.93698C5.2505 8.71721 5.54857 8.59375 5.85938 8.59375H9.26025L13.7261 4.93164L13.7583 4.90673C13.9329 4.77819 14.1397 4.70059 14.3558 4.68258C14.5718 4.66457 14.7887 4.70685 14.9821 4.80472C15.1756 4.90259 15.3381 5.05221 15.4516 5.23694C15.5651 5.42167 15.6251 5.63426 15.625 5.85107V19.1489C15.625 19.4597 15.5015 19.7578 15.2818 19.9776C15.062 20.1973 14.7639 20.3208 14.4531 20.3208V20.3218ZM18.75 16.4062C18.6168 16.4062 18.4857 16.372 18.3694 16.307C18.2531 16.2421 18.1553 16.1484 18.0854 16.035C18.0155 15.9215 17.9757 15.7921 17.9699 15.659C17.9641 15.5259 17.9925 15.3935 18.0522 15.2744C18.5156 14.3516 18.7505 13.4189 18.7505 12.5C18.7505 11.5547 18.5229 10.6484 18.0547 9.72998C17.965 9.54594 17.9511 9.33404 18.016 9.13987C18.081 8.9457 18.2195 8.78478 18.4019 8.69173C18.5843 8.59869 18.7959 8.58095 18.9912 8.64235C19.1865 8.70374 19.3499 8.83936 19.4463 9.02002C20.0293 10.1641 20.3125 11.3022 20.3125 12.5C20.3125 13.6636 20.0195 14.833 19.4482 15.9756C19.3832 16.105 19.2835 16.2139 19.1602 16.2899C19.0369 16.366 18.8949 16.4063 18.75 16.4062Z" fill="black"/>
</svg>
