<svg width="25" height="25" viewBox="0 0 25 25" fill="none" xmlns="http://www.w3.org/2000/svg">
<path d="M16.7656 20.6432C16.5158 20.6431 16.2726 20.5628 16.0718 20.4142L16.0396 20.3893L11.5737 16.7272H8.17188C7.86107 16.7272 7.563 16.6038 7.34323 16.384C7.12346 16.1642 7 15.8662 7 15.5554V10.0871C7 9.77629 7.12346 9.47822 7.34323 9.25845C7.563 9.03868 7.86107 8.91522 8.17188 8.91522H11.5728L16.0386 5.25311L16.0708 5.22821C16.2454 5.09966 16.4522 5.02206 16.6683 5.00405C16.8843 4.98604 17.1012 5.02832 17.2946 5.12619C17.4881 5.22406 17.6506 5.37368 17.7641 5.55841C17.8776 5.74314 17.9376 5.95573 17.9375 6.17254V19.4704C17.9375 19.7812 17.814 20.0793 17.5943 20.299C17.3745 20.5188 17.0764 20.6432 16.7656 20.6432Z" fill="black"/>
</svg>
